<svg width="245" height="46" viewBox="0 0 245 46" fill="none" xmlns="http://www.w3.org/2000/svg">
<path d="M36.5548 0.0854158C36.0138 0.0302514 35.4746 0 34.9283 0C31.2625 0 27.7943 1.29191 25.0468 3.66043C24.2887 3.00913 23.4772 2.43791 22.6231 1.95389C15.6546 11.734 33.4033 33.2802 24.4097 45.8185C24.6019 45.9395 24.819 46 25.0414 46C25.3439 46 25.6482 45.8843 25.8796 45.6512L34.5902 36.9406C38.4375 25.0304 26.9401 9.12348 36.5548 0.0854158Z" fill="#FFD364"/>
<path d="M22.6177 1.95389C20.3649 0.681547 17.8149 0 15.1599 0C11.1044 0 7.29805 1.57485 4.43484 4.4434C4.38502 4.49323 4.33341 4.55017 4.28358 4.6C5.69295 14.9816 21.623 28.0698 18.952 40.4053L24.2033 45.6566C24.2691 45.7224 24.3403 45.7722 24.4097 45.8238C33.4033 33.2802 15.6546 11.734 22.6177 1.95389Z" fill="#508BD7"/>
<path d="M4.28358 4.59467C-1.47843 10.5168 -1.42682 20.0211 4.43484 25.8828L18.952 40.3999C21.623 28.0698 5.69294 14.9816 4.28358 4.59467Z" fill="#83DC7D"/>
<path d="M44.76 3.62127C39.2116 10.4474 43.8009 23.016 40.9216 30.6145L45.6533 25.8828C51.5666 19.9695 51.5666 10.3513 45.6533 4.43806C45.3597 4.15512 45.0625 3.87752 44.76 3.62127Z" fill="#F08CFB"/>
<path d="M44.76 3.62127C42.4325 1.6318 39.5888 0.409282 36.5548 0.0871925C26.9401 9.12526 38.4428 25.0304 34.5955 36.9424L40.9217 30.6162C43.7991 23.016 39.2098 10.4421 44.76 3.62127Z" fill="#FF5175"/>
<path d="M60.4641 29.0129C61.8272 29.7105 63.9217 30.4099 66.0837 30.4099C68.4113 30.4099 69.641 29.4454 69.641 27.9826C69.641 26.5857 68.5768 25.7885 65.8844 24.824C62.16 23.5268 59.7327 21.4661 59.7327 18.2078C59.7327 14.3837 62.9251 11.4582 68.212 11.4582C70.7389 11.4582 72.6003 11.9903 73.9313 12.5882L72.8013 16.6775C71.9045 16.2451 70.3083 15.6133 68.1141 15.6133C65.92 15.6133 64.8559 16.6116 64.8559 17.7754C64.8559 19.2044 66.1193 19.8361 69.0128 20.934C72.9686 22.3968 74.8317 24.4592 74.8317 27.6178C74.8317 31.3743 71.9383 34.5668 65.7883 34.5668C63.2276 34.5668 60.7008 33.9012 59.4373 33.2037L60.4641 29.0129Z" fill="#508BD7"/>
<path d="M92.084 29.0129C92.084 31.1412 92.1498 32.8691 92.2174 34.2322H87.8292L87.5961 31.9384H87.4964C86.8647 32.9367 85.3343 34.5988 82.4089 34.5988C79.1168 34.5988 76.6896 32.5381 76.6896 27.5164V17.9747H81.7771V26.7192C81.7771 29.0806 82.5423 30.5095 84.304 30.5095C85.7009 30.5095 86.4981 29.545 86.8309 28.7478C86.9644 28.4488 86.9964 28.0502 86.9964 27.6499V17.9747H92.084V29.0129Z" fill="#508BD7"/>
<path d="M94.7764 29.8102C95.707 30.376 97.636 31.0398 99.1326 31.0398C100.663 31.0398 101.295 30.5077 101.295 29.6767C101.295 28.8457 100.796 28.4471 98.9012 27.8153C95.5433 26.6854 94.2461 24.856 94.2799 22.9271C94.2799 19.9019 96.8726 17.6081 100.896 17.6081C102.791 17.6081 104.487 18.0406 105.484 18.5388L104.587 22.0302C103.855 21.6316 102.458 21.0995 101.062 21.0995C99.8319 21.0995 99.1326 21.5978 99.1326 22.4288C99.1326 23.194 99.7643 23.5926 101.759 24.2902C104.852 25.3543 106.147 26.9167 106.181 29.3101C106.181 32.3353 103.788 34.5632 99.1326 34.5632C97.0043 34.5632 95.1091 34.097 93.8795 33.4332L94.7764 29.8102Z" fill="#508BD7"/>
<path d="M113.563 13.3196V17.9747H117.187V21.6992H113.563V27.5822C113.563 29.5432 114.029 30.4419 115.557 30.4419C116.189 30.4419 116.687 30.376 117.054 30.3084L117.088 34.1326C116.422 34.3995 115.226 34.565 113.796 34.565C112.166 34.565 110.803 33.9991 110.005 33.1681C109.075 32.2036 108.608 30.6412 108.608 28.3474V21.6974H106.446V17.9729H108.608V14.4495L113.563 13.3196ZM109.308 40.1846C110.406 39.9515 111.502 39.2878 111.502 38.156C111.502 37.3588 110.97 36.6594 110.504 36.1612L114.029 35.5633C114.694 36.0615 115.326 37.0598 115.326 38.2236C115.326 40.9836 112.965 42.2133 110.073 42.3467L109.308 40.1846Z" fill="#508BD7"/>
<path d="M124.003 13.453C124.003 14.8499 122.939 15.9799 121.277 15.9799C119.68 15.9799 118.616 14.8499 118.65 13.453C118.616 11.9903 119.68 10.8923 121.31 10.8923C122.94 10.8923 123.969 11.9903 124.003 13.453ZM118.784 34.2322V17.9729H123.837V34.2322H118.784Z" fill="#508BD7"/>
<path d="M126.564 23.162C126.564 21.1333 126.498 19.4054 126.43 17.9747H130.818L131.051 20.2027H131.151C131.817 19.1723 133.479 17.6099 136.171 17.6099C139.495 17.6099 141.99 19.804 141.99 24.5927V34.234H136.936V25.2244C136.936 23.1299 136.205 21.6992 134.376 21.6992C132.979 21.6992 132.148 22.6637 131.815 23.5944C131.681 23.8933 131.616 24.3916 131.616 24.8578V34.234H126.562V23.162H126.564Z" fill="#508BD7"/>
<path d="M148.608 27.7157C148.773 29.8102 150.836 30.8085 153.197 30.8085C154.927 30.8085 156.322 30.5753 157.685 30.1429L158.351 33.5667C156.689 34.2322 154.66 34.565 152.466 34.565C146.946 34.565 143.787 31.3726 143.787 26.2868C143.787 22.1637 146.348 17.6081 152 17.6081C157.253 17.6081 159.248 21.6974 159.248 25.7209C159.248 26.5857 159.148 27.3509 159.082 27.7157H148.608ZM154.559 24.2581C154.559 23.0285 154.026 20.9661 151.699 20.9661C149.571 20.9661 148.706 22.895 148.574 24.2581H154.559Z" fill="#508BD7"/>
<path d="M161.372 12.1219C162.702 11.855 165.396 11.6557 167.923 11.6557C171.015 11.6557 172.91 11.9546 174.539 12.9191C176.101 13.7502 177.231 15.2805 177.231 17.3074C177.231 19.3022 176.067 21.1635 173.54 22.096V22.1618C176.101 22.8594 177.996 24.7884 177.996 27.6818C177.996 29.7105 177.066 31.3067 175.669 32.4367C174.039 33.7339 171.313 34.4653 166.858 34.4653C164.365 34.4653 162.502 34.2998 161.372 34.1325V12.1219ZM166.394 20.7009H168.056C170.716 20.7009 172.145 19.6029 172.145 17.9409C172.145 16.245 170.848 15.3481 168.554 15.3481C167.456 15.3481 166.825 15.414 166.392 15.4816V20.7009H166.394ZM166.394 30.6429C166.892 30.7088 167.492 30.7088 168.355 30.7088C170.649 30.7088 172.677 29.8439 172.677 27.4843C172.677 25.2226 170.649 24.3257 168.122 24.3257H166.392V30.6429H166.394Z" fill="#FF5175"/>
<path d="M185.18 13.453C185.18 14.8499 184.116 15.9799 182.454 15.9799C180.858 15.9799 179.794 14.8499 179.827 13.453C179.794 11.9902 180.858 10.8923 182.488 10.8923C184.116 10.8923 185.146 11.9902 185.18 13.453ZM179.959 34.2322V17.9729H185.013V34.2322H179.959Z" fill="#FF5175"/>
<path d="M187.739 23.1619C187.739 21.1333 187.673 19.4054 187.606 17.9747H191.994L192.227 20.2026H192.327C192.992 19.1723 194.654 17.6099 197.347 17.6099C200.671 17.6099 203.166 19.804 203.166 24.5926V34.2339H198.112V25.2244C198.112 23.1299 197.38 21.6992 195.551 21.6992C194.154 21.6992 193.323 22.6637 192.99 23.5943C192.857 23.8933 192.791 24.3915 192.791 24.8578V34.2339H187.737V23.1619H187.739Z" fill="#FF5175"/>
<path d="M209.783 27.7156C209.949 29.8101 212.011 30.8084 214.373 30.8084C216.102 30.8084 217.498 30.5753 218.861 30.1429L219.526 33.5666C217.864 34.2322 215.836 34.5649 213.641 34.5649C208.121 34.5649 204.963 31.3725 204.963 26.2867C204.963 22.1636 207.523 17.6081 213.175 17.6081C218.428 17.6081 220.423 21.6974 220.423 25.7208C220.423 26.5857 220.323 27.3509 220.258 27.7156H209.783ZM215.736 24.2581C215.736 23.0285 215.204 20.966 212.876 20.966C210.748 20.966 209.883 22.895 209.751 24.2581H215.736Z" fill="#FF5175"/>
<path d="M222.119 10.6254H227.173V34.2322H222.119V10.6254Z" fill="#FF5175"/>
<path d="M233.823 27.7156C233.988 29.8101 236.051 30.8084 238.41 30.8084C240.14 30.8084 241.535 30.5753 242.898 30.1429L243.564 33.5666C241.902 34.2322 239.873 34.5649 237.679 34.5649C232.159 34.5649 229 31.3725 229 26.2867C229 22.1636 231.561 17.6081 237.213 17.6081C242.466 17.6081 244.461 21.6974 244.461 25.7208C244.461 26.5857 244.361 27.3509 244.295 27.7156H233.823ZM239.775 24.2581C239.775 23.0285 239.243 20.966 236.915 20.966C234.787 20.966 233.922 22.895 233.791 24.2581H239.775Z" fill="#FF5175"/>
</svg>
